<svg version="1.1" id="Layer_1" xmlns="http://www.w3.org/2000/svg" xmlns:xlink="http://www.w3.org/1999/xlink" x="0px" y="0px"
	 width="100%" viewBox="0 0 1024 1024" enable-background="new 0 0 1024 1024" xml:space="preserve">
<path fill="#000000" opacity="1.000000" stroke="none" 
	d="
M146.249573,576.329346 
	C148.206711,555.844482 151.188309,535.882080 151.640137,515.755615 
	C151.841446,506.789398 149.404266,498.130737 144.530472,490.109253 
	C133.218018,471.490784 128.213654,451.965424 135.152237,430.065247 
	C139.200333,417.288269 140.981079,403.789948 143.705307,390.600342 
	C144.037857,388.990265 144.096344,387.262543 143.939835,385.621918 
	C142.282761,368.250977 146.560669,352.056915 153.241302,336.229462 
	C154.967239,332.140442 155.598373,327.582550 156.659439,323.222321 
	C157.241928,320.828613 158.941315,319.504150 160.585434,317.798676 
	C165.146423,313.067413 169.335678,307.917908 173.214142,302.599915 
	C184.479950,287.152771 198.714127,274.590363 212.543198,261.636261 
	C219.831131,254.809372 228.272614,248.989410 234.527374,241.350723 
	C240.157944,234.474335 245.486343,227.182724 250.685791,219.896835 
	C263.257050,202.280960 278.329803,187.246613 295.546967,174.211945 
	C302.175690,169.193512 309.862640,166.410477 317.244385,163.013062 
	C333.726501,155.427246 350.070923,147.564301 366.225220,139.314301 
	C370.653290,137.052887 375.062988,135.412964 380.067474,136.058136 
	C389.028412,137.213379 397.078491,133.611633 405.403595,131.368805 
	C408.932068,130.418213 412.523621,129.587051 416.140411,129.110947 
	C419.856506,128.621765 423.374817,127.702057 426.446930,125.599899 
	C434.008911,120.425446 442.378479,119.265175 451.272491,120.082809 
	C466.024048,121.438942 480.896057,121.115494 495.603333,123.037941 
	C510.087067,124.931160 524.543579,123.420914 539.013550,123.086670 
	C551.550293,122.797081 562.669128,124.606461 573.100403,133.725647 
	C585.074951,144.194077 600.908508,147.891464 616.575989,151.009232 
	C636.066650,154.887772 654.700684,161.681320 672.230591,171.040070 
	C678.850647,174.574356 685.485535,178.099640 692.334839,181.050461 
	C711.829529,189.449097 730.377197,199.434647 747.683533,211.754227 
	C755.444214,217.278763 762.367981,223.777603 769.395569,230.118164 
	C778.049133,237.925842 786.852173,245.551041 795.590210,253.256760 
	C805.241882,261.768219 812.916260,272.165039 820.743347,282.291931 
	C835.000488,300.738342 845.843750,321.125732 853.707703,343.110413 
	C856.752014,351.621246 859.242371,360.325562 860.595886,369.171906 
	C863.778809,389.975037 869.337158,410.233429 873.763306,430.747925 
	C875.875183,440.535828 877.492859,450.290863 877.109558,460.421356 
	C876.619080,473.386658 879.898621,486.195740 879.018311,499.267853 
	C877.935425,515.347351 878.770813,531.596008 874.221558,547.325256 
	C872.292664,553.994568 872.915100,560.914246 872.537598,567.698792 
	C872.045105,576.548828 868.176514,584.828430 868.845276,593.853943 
	C869.154602,598.028687 870.010132,601.485168 872.993347,604.668213 
	C877.193604,609.149841 879.016907,614.742493 877.452026,620.851685 
	C875.763123,627.444885 876.497681,633.500488 879.144470,639.791626 
	C882.123840,646.873535 881.766846,654.572144 880.365784,661.971069 
	C878.097412,673.950134 873.688843,685.342468 869.786194,696.856934 
	C868.040100,702.008545 863.331299,704.789673 859.814087,708.506836 
	C858.499207,709.896545 857.176819,709.393799 855.990784,708.032715 
	C853.134827,704.755127 851.183594,706.802917 849.983093,709.468628 
	C848.140137,713.560791 846.727722,717.847717 845.154175,722.060059 
	C842.236206,729.871216 838.907471,737.488525 834.829346,744.777954 
	C828.873169,755.424377 820.313660,764.107056 811.305481,771.774353 
	C798.723938,782.483154 789.301758,795.237244 781.156921,809.252197 
	C777.008240,816.390808 771.478271,821.385681 764.035522,825.703613 
	C750.850159,833.352966 737.550842,840.929260 724.731079,849.244446 
	C722.690369,850.568115 721.411438,852.562073 720.107361,854.435608 
	C715.045044,861.708557 707.112488,865.153809 700.090332,869.804016 
	C693.444214,874.205078 687.001038,878.971497 678.915527,880.680542 
	C675.968567,881.303406 673.670532,883.197083 671.633789,885.622559 
	C666.622681,891.589844 659.467773,894.061646 652.201660,894.876892 
	C637.830322,896.489319 624.784485,903.069275 610.556213,905.111267 
	C604.429749,905.990601 599.581543,910.474915 593.535278,912.115173 
	C578.359497,916.231689 563.087708,919.306458 547.281616,919.201355 
	C531.968689,919.099548 516.412109,920.392578 501.761169,914.926331 
	C492.691772,911.542480 483.702728,911.622681 474.397217,911.955322 
	C467.392456,912.205750 460.504517,910.915100 453.800903,908.597168 
	C446.243713,905.984009 438.548676,905.258667 430.754730,907.909912 
	C425.636566,909.651001 420.615540,909.194092 415.687225,906.897766 
	C411.252991,904.831604 406.581604,903.877991 401.622559,904.040833 
	C381.462982,904.702637 362.960571,898.758606 345.252258,889.697144 
	C339.774231,886.893921 334.052216,884.574585 328.454437,882.049438 
	C321.744598,879.022644 316.013641,875.054199 311.111786,869.711121 
	C307.219269,865.468201 302.026794,863.497070 296.766327,861.956848 
	C275.789062,855.814758 255.647049,847.510376 235.733444,838.626770 
	C229.147644,835.688843 223.616058,830.983765 218.130798,826.392944 
	C205.046982,815.442627 196.066086,801.224731 187.427917,786.807678 
	C185.616776,783.784973 182.538132,782.320312 180.424728,779.797791 
	C173.607071,771.660461 164.733856,765.434570 158.858139,756.421570 
	C153.972794,748.927734 148.684326,741.780701 146.481659,732.750793 
	C144.123505,723.083435 140.237534,713.841919 137.383804,704.274658 
	C135.027939,696.376465 134.292770,688.853699 136.598663,681.253418 
	C141.397995,665.434631 142.312653,649.136597 142.797806,632.861023 
	C143.170929,620.344116 143.159332,607.872681 146.358673,595.669983 
	C148.019363,589.335876 145.609955,583.079956 146.249573,576.329346 
M534.075317,640.546265 
	C571.000549,631.866394 598.980408,611.241516 616.987427,577.730347 
	C629.611206,554.237610 635.104065,529.283264 630.879150,502.557648 
	C630.331360,499.092651 628.773560,498.168884 625.623291,498.166168 
	C589.131775,498.134766 552.640137,498.074524 516.148987,497.911835 
	C511.636993,497.891754 509.949677,499.702850 509.991211,504.170166 
	C510.079529,513.662537 509.923187,523.160950 509.666016,532.651489 
	C509.494751,538.972473 510.074493,539.766541 516.601990,539.768921 
	C538.097107,539.776733 559.592285,539.740662 581.087402,539.764099 
	C583.036011,539.766235 585.091309,539.285217 586.898132,540.479126 
	C585.208130,558.840088 564.508118,586.909912 534.970825,596.843201 
	C498.897125,608.974548 461.003174,596.444458 439.411774,564.190735 
	C418.884705,533.526917 422.154877,491.484497 443.854950,464.578796 
	C456.100616,449.395538 472.087372,439.565247 491.277832,436.052032 
	C519.989502,430.795715 545.238403,438.753937 568.342651,460.070404 
	C576.141418,451.455933 583.403442,443.203644 590.933716,435.203827 
	C595.360718,430.500763 595.710449,430.016724 590.900208,425.764069 
	C556.356934,395.224823 516.959045,384.634979 472.272339,398.033112 
	C436.308472,408.815948 409.859436,431.514984 394.586853,465.712677 
	C383.895477,489.652283 380.121307,515.158020 385.536194,541.368164 
	C399.963257,611.200378 462.915466,654.199707 534.075317,640.546265 
M487.240356,711.500000 
	C487.235992,726.828430 487.269257,742.157104 487.195526,757.485229 
	C487.180817,760.549988 487.699127,762.599487 491.449890,762.678772 
	C508.614716,763.041443 525.769836,763.061523 542.772034,760.326843 
	C570.820801,755.815308 597.335999,746.683472 622.120056,732.811157 
	C665.305420,708.639038 698.182495,674.311768 721.309998,630.668884 
	C730.788696,612.781860 737.177368,593.696350 741.934631,574.028687 
	C743.045044,569.437866 741.190796,568.316589 737.271362,568.354675 
	C734.605835,568.380615 731.934814,568.464539 729.275452,568.334839 
	C726.236633,568.186646 724.972046,569.532288 724.191956,572.488892 
	C705.259338,644.244324 661.905884,695.488403 594.102539,725.524963 
	C567.407654,737.350647 539.295227,744.073364 509.767914,743.542664 
	C505.965485,743.474243 504.409180,742.483521 504.536713,738.469482 
	C504.710876,732.987610 504.338470,727.486145 504.139160,721.995361 
	C504.021973,718.767883 504.734039,716.820618 508.679108,716.476685 
	C519.438171,715.538879 530.250610,715.064270 540.921448,713.191772 
	C577.328186,706.803101 608.914795,690.716003 636.484253,666.259094 
	C670.728760,635.880798 692.099304,598.264465 700.704041,553.351685 
	C701.223816,550.638672 702.481201,547.938843 701.131409,544.709167 
	C692.122192,543.865234 682.977844,544.322815 673.861328,544.374329 
	C659.452209,544.455688 662.097229,542.127075 658.194153,556.377136 
	C641.926636,615.770142 603.173767,652.564148 544.595093,669.429749 
	C528.332092,674.112122 511.647919,673.532532 494.997253,673.275879 
	C487.333893,673.157776 487.317291,673.128601 487.290710,681.008911 
	C487.257538,690.839233 487.256012,700.669617 487.240356,711.500000 
M361.418732,568.924683 
	C360.145142,564.616760 358.770538,560.335754 357.615784,555.996216 
	C353.118469,539.095581 352.279541,521.843201 352.932404,504.475342 
	C353.079315,500.567352 352.321594,498.075897 347.612122,498.083618 
	C323.282471,498.123657 298.952332,498.042694 274.622925,497.905090 
	C270.452209,497.881470 269.195557,499.736084 269.270660,503.714661 
	C269.465698,514.043091 269.508392,524.381714 269.258301,534.707703 
	C269.159576,538.782898 270.708069,539.880127 274.504120,539.831909 
	C286.000580,539.685730 297.501556,539.903992 308.998260,539.767151 
	C312.569336,539.724609 313.901581,540.996399 314.335266,544.581665 
	C315.674377,555.652405 317.774902,566.589539 321.367188,577.197571 
	C341.928589,637.915161 381.427185,680.765991 441.348053,704.300354 
	C446.685333,706.396606 452.239136,707.941589 457.424103,709.654053 
	C459.095093,707.534485 458.647003,705.802795 458.652496,704.190186 
	C458.688843,693.524902 458.461639,682.854065 458.749878,672.196655 
	C458.864471,667.959229 457.191986,665.864136 453.492096,664.327576 
	C443.174438,660.042542 433.044342,655.281311 423.758789,649.036255 
	C394.471954,629.339172 374.102661,602.593445 361.418732,568.924683 
M279.611725,442.052948 
	C278.169098,447.352448 276.546082,452.610565 275.318481,457.959442 
	C271.958160,472.600891 271.285156,470.352570 285.506531,470.678345 
	C289.279602,470.764801 291.045044,469.517120 291.920532,465.556885 
	C298.064148,437.767151 308.599762,411.782593 325.665009,388.844513 
	C379.955811,315.869934 451.643402,281.766510 542.773865,294.931885 
	C591.838379,302.020142 633.367249,325.729126 667.566223,361.414337 
	C696.104797,391.193115 716.009705,426.043915 724.642822,466.806183 
	C724.975830,468.378448 725.189148,470.449615 727.368774,470.479095 
	C732.439331,470.547638 737.580505,471.284393 742.888916,469.775940 
	C742.713440,467.581268 742.727661,465.750702 742.401001,463.983154 
	C738.896484,445.020386 732.687012,426.918304 723.996826,409.762390 
	C696.572693,355.622314 654.628418,316.795410 599.232971,292.294373 
	C564.570923,276.963562 528.241638,270.695953 490.570435,273.559387 
	C458.493347,275.997620 428.053406,284.994720 399.702484,300.326691 
	C341.545715,331.777466 300.524170,377.906952 279.611725,442.052948 
M602.478760,345.055817 
	C585.388062,335.476349 567.395447,328.216217 548.268921,323.814301 
	C541.513916,322.259644 539.909790,323.107574 539.709656,329.804871 
	C539.406250,339.955231 539.517029,350.117432 539.376587,360.273560 
	C539.327332,363.837769 540.988342,365.798035 544.386353,366.664825 
	C552.798035,368.810547 560.925659,371.757111 568.768372,375.501129 
	C625.863831,402.757629 657.023010,447.937988 662.157410,510.959808 
	C662.519165,515.400146 664.165894,516.748047 668.269104,516.605713 
	C690.572205,515.831726 712.884521,515.976501 735.196045,516.084778 
	C747.498840,516.144470 747.257812,516.119873 747.122986,504.027283 
	C747.066772,498.986237 745.047607,497.887604 740.507202,498.016449 
	C730.019470,498.314087 719.503540,497.853363 709.031555,498.365601 
	C703.580383,498.632233 702.093506,496.303284 701.771484,491.574005 
	C700.941589,479.386261 698.175659,467.550293 694.242676,456.036591 
	C677.750671,407.757324 646.216858,371.803711 602.478760,345.055817 
M477.783600,321.363678 
	C476.481354,321.634003 475.180511,321.911499 473.876617,322.173645 
	C422.743408,332.453064 382.360962,359.754944 350.709229,400.533691 
	C335.819763,419.716614 326.902130,441.939972 319.802917,464.956543 
	C318.608551,468.828857 319.802094,470.688904 323.930145,470.675293 
	C334.420959,470.640717 344.913177,470.577332 355.402283,470.717377 
	C359.092133,470.766663 360.700684,468.928192 361.806061,465.720795 
	C366.118256,453.208282 372.357788,441.680634 379.854248,430.787018 
	C408.508148,389.148102 448.125214,366.609558 498.415833,362.780029 
	C502.477051,362.470764 504.080139,360.953583 504.047913,357.027374 
	C503.959045,346.204346 503.941833,335.380157 503.992645,324.556885 
	C504.010681,320.712921 502.232330,319.298462 498.477081,319.277740 
	C491.779480,319.240875 485.219391,320.243408 477.783600,321.363678 
M313.146851,626.281311 
	C304.833130,611.169373 298.784790,595.163086 294.193665,578.567261 
	C291.323730,568.193115 291.260803,568.210571 280.602844,568.282104 
	C273.866180,568.327271 273.319763,568.943726 274.866638,575.484436 
	C282.629120,608.305969 296.202881,638.371460 316.416962,665.534485 
	C350.005493,710.669556 394.226471,740.039246 447.974213,755.532959 
	C458.590729,758.593384 458.670227,758.317749 458.665344,747.181091 
	C458.661926,739.395935 458.668945,739.372314 451.512543,737.238586 
	C390.626160,719.085266 344.602020,682.347473 313.146851,626.281311 
z"/>
</svg>