<?xml version="1.0" encoding="UTF-8"?>
<svg width="100pt" height="100pt" version="1.1" viewBox="0 0 100 100" xmlns="http://www.w3.org/2000/svg">
 <g fill="#fff">
  <path d="m94.316 12.18h-89.254c-1.5625 0-2.9102 1.1875-2.9102 2.7539v59.605c0 1.5625 1.3477 2.8789 2.9102 2.8789h35.145c-0.039062 0.89453-0.32031 4.7539-2.1562 6.6211-1.4453 1.4727-3.4531 2.8555-2.668 3.5625 0.19141 0.4375 1.0898 0.6875 3.1406 0.6875h11.207 0.70703 11.207c2.3359 0 3.1484-0.38281 3.1562-0.95312h-0.078125v-0.1875h-0.082031c-0.10547-0.76953-1.6602-1.9062-2.8398-3.1055-1.8359-1.8711-2.1133-5.7266-2.1523-6.6211h34.676c1.5625 0 2.8281-1.3125 2.8281-2.8789v-59.609c-0.003906-1.5664-1.2695-2.7539-2.8359-2.7539zm-44.664 62.496c-1.0195 0-1.8477-0.82422-1.8477-1.8477s0.82422-1.8477 1.8477-1.8477c1.0195 0 1.8477 0.82422 1.8477 1.8477s-0.82812 1.8477-1.8477 1.8477zm43.492-9.6562h-86.984v-49.023h86.984z"/>
  <path d="m42.715 46.887-11.262-4.9336v-0.0625l11.262-4.9297v-3.2891l-14.891 6.918v2.668l14.891 6.918z"/>
  <path d="m48.145 51.414 6.6406-22.488h-3.1328l-6.6406 22.488z"/>
  <path d="m71.477 40.496-14.891-6.8242v3.2891l11.512 4.9297v0.0625l-11.512 4.9336v3.2891l14.891-6.8281z"/>
 </g>
</svg>
