<?xml version="1.0" encoding="UTF-8"?>
<svg width="100pt" height="100pt" version="1.1" viewBox="0 0 200 200" xmlns="http://www.w3.org/2000/svg">
 <path d="m91.668 65.566h-12.098v-31.137h12.098c3.8672 0 7-3.1328 7-7 0-3.8672-3.1328-7-7-7h-12.098v-12.094c0-3.8672-3.1328-7-7-7-3.8672 0-7 3.1328-7 7v12.098h-31.141v-12.098c0-3.8672-3.1328-7-7-7-3.8672 0-7 3.1328-7 7v12.098l-12.094-0.003906c-3.8672 0-7 3.1328-7 7 0 3.8672 3.1328 7 7 7h12.098v31.137h-12.098c-3.8672 0-7 3.1328-7 7 0 3.8672 3.1328 7 7 7h12.098v12.098c0 3.8672 3.1328 7 7 7 3.8672 0 7-3.1328 7-7v-12.098h31.141v12.098c0 3.8672 3.1328 7 7 7 3.8672 0 7-3.1328 7-7v-12.098h12.098c3.8672 0 7-3.1328 7-7 0-3.8633-3.1367-7-7.0039-7zm-57.238-31.137h31.141v31.137h-31.141z" fill="#608e4c"/>
</svg>
